<?xml version="1.0" encoding="utf-8"?>
<!-- Generator: Adobe Illustrator 25.2.3, SVG Export Plug-In . SVG Version: 6.00 Build 0)  -->
<svg version="1.1" id="Layer_1" xmlns="http://www.w3.org/2000/svg" xmlns:xlink="http://www.w3.org/1999/xlink" x="0px" y="0px"
	 viewBox="0 0 193 165.8" style="enable-background:new 0 0 193 165.8;" xml:space="preserve">
<style type="text/css">
	.st0{fill:#FDC832;}
	.st1{fill:#29355D;}
	.st2{fill-rule:evenodd;clip-rule:evenodd;fill:#FFFFFF;}
	.st3{fill:#FFFFFF;}
	.st4{clip-path:url(#SVGID_2_);}
</style>
<g>
	<g id="Layer_2_1_">
		<g id="Layer_1-2">
			
				<image style="overflow:visible;opacity:0.12;enable-background:new    ;" width="804" height="662" xlink:href="65EA1808424C71A5.png"  transform="matrix(0.2686 0 0 0.2686 -9.6732 -6.5344)">
			</image>
			<path class="st0" d="M41.2,6.4C23,18.9-6.1,83.2,3.5,117.4c6.9,24.4,93.4,40.9,125.5,36.2c43.9-6.5,73.1-77.2,56.8-98.2
				C173.8,39.8,62.4-8.2,41.2,6.4z"/>
			
				<image style="overflow:visible;opacity:0.12;enable-background:new    ;" width="739" height="624" xlink:href="65EA1808424C71A3.png"  transform="matrix(0.2686 0 0 0.2686 -1.0767 3.1368)">
			</image>
			<path class="st1" d="M17.5,33.1c-11,18.3-11,86.7,11.3,113.1c15.8,18.8,98.9-1.3,125.4-18.3c36.2-23.3,33.6-97.4,10.9-109.4
				C148,9.4,30.4,11.7,17.5,33.1z"/>
			<path class="st2" d="M93.8,57.4c-0.4,1.5-0.9,3-1.5,4.5c-0.7,1.6-1.8,2.9-3.1,4c2.6-0.7,5.1-1.8,7.4-3.2c2.2-1.4,4.1-3.2,5.6-5.2
				"/>
			<path class="st3" d="M113.8,77.6c-0.2,0-0.4-0.1-0.6-0.2c-1.8-1.6-3.4-3.6-4.6-5.7c-0.8-1.5-1.5-3.2-1.9-4.9l-5-2.4
				c-0.4-0.2-0.6-0.7-0.4-1.1c0.2-0.4,0.7-0.6,1.1-0.4l5.3,2.6c0.2,0.1,0.4,0.3,0.5,0.6c0.4,1.7,1,3.3,1.8,4.8
				c0.6,1.1,1.3,2.1,2.1,3c0-0.5,0-1,0-1.6c0.1-1.2,0.3-2.5,0.5-3.7c0.1-0.2,0.2-0.4,0.4-0.6c0.2-0.1,0.5-0.1,0.7-0.1
				c6,2.1,10.9,2.6,12.2,1.3c4.1-4.1,5.2-15.8,3.7-18.9c-1.5-3.1-21.7-5.9-24.8-4.6c-0.4,0.2-0.9,0-1.1-0.5c-0.2-0.4,0-0.9,0.5-1.1
				c3.4-1.4,24.8,1,27,5.5c1.7,3.6,0.7,16.2-4.1,20.8c-2.5,2.4-9.4,0.6-13-0.5c-0.1,0.8-0.2,1.6-0.3,2.5c-0.1,1.4,0.2,2.7,0.7,4
				c0.1,0.4,0,0.8-0.3,1C114.2,77.5,114,77.6,113.8,77.6z"/>
			<g>
				<defs>
					<path id="SVGID_1_" d="M17.9,34.6c-11,18.3-11,86.8,11.2,113.1c15.8,18.8,98.9-1.3,125.4-18.3C190.7,106,188.1,32,165.3,19.9
						C148.4,10.9,30.8,13.2,17.9,34.6z"/>
				</defs>
				<clipPath id="SVGID_2_">
					<use xlink:href="#SVGID_1_"  style="overflow:visible;"/>
				</clipPath>
				<g class="st4">
					<path class="st2" d="M24.3,123.1c6.3-2.8,26.4-8.1,28-16.1c0.4-2.1-4.5-9.2-5.8-13c-2-3.2-3.2-9.3-0.9-12.8
						c1.4-2.1,0.8-6.9,0.8-9.5c0-20.8,36.4-20.7,36.4,0c0,2.1-0.4,7.6,0.6,9.1c2.5,3.8,1.7,9.5-0.6,13.2c-1.1,3.6-5.7,11-5.4,13
						c1.7,14.1,19.1,7.1,26.5,17.7"/>
					<path class="st2" d="M95.1,123.8c3.8-1.7,15.8-4.9,16.8-9.6c0.2-1.3-2.7-5.5-3.4-7.8c-1.2-1.9-1.9-5.6-0.5-7.6
						c0.9-1.2,0.5-4.1,0.5-5.7c0-12.4,21.7-12.4,21.7,0c0,1.3-0.2,4.5,0.3,5.5c1.5,2.2,1,5.7-0.4,7.8c-0.6,2.1-3.4,6.6-3.2,7.8
						c1,8.4,11.4,4.3,15.8,10.6"/>
					<rect x="11" y="120.5" class="st3" width="169.3" height="58.5"/>
				</g>
			</g>
			<path class="st3" d="M86.3,29.8c-3.5,2.6-8.7,15.6-6.6,22.3c1.5,4.8,18.8,7.4,25.1,6.2c8.6-1.6,13.9-15.8,10.5-19.9
				C112.9,35.4,90.4,26.8,86.3,29.8z"/>
		</g>
	</g>
</g>
</svg>
