<?xml version="1.0" encoding="utf-8"?>
<!-- Generator: Adobe Illustrator 25.2.3, SVG Export Plug-In . SVG Version: 6.00 Build 0)  -->
<svg version="1.1" id="Layer_1" xmlns="http://www.w3.org/2000/svg" xmlns:xlink="http://www.w3.org/1999/xlink" x="0px" y="0px"
	 viewBox="0 0 1280 174" style="enable-background:new 0 0 1280 174;" xml:space="preserve">
<style type="text/css">
	.st0{fill:#CD365A;}
</style>
<g>
	<g id="Layer_2_1_">
		<g id="Layer_1-2">
			
				<image style="overflow:visible;opacity:0.2;enable-background:new    ;" width="1287" height="174" xlink:href="8780FA5D78410D35.png" >
			</image>
			<path class="st0" d="M1229.1,47.2c-42.5,32.4-116.2,74.8-226,93.1c-139.9,23.2-194.2,12.7-251.7,1.5c-29-5.6-59-11.5-100.9-12.4
				c-50.3-1.1-88.6,6.9-129.3,15.4c-58.7,12.3-125.1,26.2-245.5,17.4c-105.6-7.7-179.4-25-222.6-38.2c-18.1-5.4-35.8-11.8-53.2-19.3
				v3.3c17,7.3,34.4,13.5,52.1,18.8c43.4,13.3,117.4,30.7,223.4,38.4c26.6,1.9,50.5,2.8,72.3,2.8c77.5,0,128.1-10.6,174-20.2
				c40.5-8.5,78.7-16.5,128.6-15.3c41.6,1,71.5,6.8,100.4,12.4c55.2,10.8,112.3,21.9,252.8-1.4c110.4-18.3,184.6-61.1,227.4-93.7
				c17.7-13.4,34.1-28.4,49.1-44.7V0.3C1264.6,17.5,1247.5,33.2,1229.1,47.2z"/>
		</g>
	</g>
</g>
</svg>
