<?xml version="1.0" encoding="utf-8"?>
<!-- Generator: Adobe Illustrator 25.2.3, SVG Export Plug-In . SVG Version: 6.00 Build 0)  -->
<svg version="1.1" id="Layer_1" xmlns="http://www.w3.org/2000/svg" xmlns:xlink="http://www.w3.org/1999/xlink" x="0px" y="0px"
	 viewBox="0 0 301.3 226.4" style="enable-background:new 0 0 301.3 226.4;" xml:space="preserve">
<style type="text/css">
	.st0{fill:#CE365A;}
</style>
<g id="Layer_2_1_">
	<g id="Layer_1-2">
		<g>
			<path class="st0" d="M107.7,4c30.6,0,62.3,3.8,89.2,10.8c30.4,7.9,52.7,19.2,64.5,32.7c11.2,12.9,22,35.9,28.9,61.5
				c7.3,27.1,9,53,4.6,71.1c-3.3,13.8-9.9,22.8-19.6,26.7c-24.9,10.1-66.7,15.6-117.8,15.6c-54.5,0-109-6.6-129.6-15.6
				c-13.4-5.9-19.2-25.9-21.7-41.5c-3.7-23.6-2.8-56.3,2.4-87.4c4.9-28.8,12.7-51.6,20.1-58.2C39.6,10,69.9,4,107.7,4 M107.7,1
				c-37,0-68.9,5.7-81,16.5c-23.3,20.7-44,172.7,0,192.1c20.7,9.1,75.4,15.9,130.8,15.9c45.2,0,90.9-4.5,118.9-15.9
				c44.5-18,18.7-127.8-12.8-164C237.2,15.1,166.1,1,107.7,1L107.7,1z"/>
		</g>
	</g>
</g>
</svg>
