<?xml version="1.0" encoding="utf-8"?>
<!-- Generator: Adobe Illustrator 25.2.3, SVG Export Plug-In . SVG Version: 6.00 Build 0)  -->
<svg version="1.1" id="Layer_1" xmlns="http://www.w3.org/2000/svg" xmlns:xlink="http://www.w3.org/1999/xlink" x="0px" y="0px"
	 viewBox="0 0 289.3 246.3" style="enable-background:new 0 0 289.3 246.3;" xml:space="preserve">
<style type="text/css">
	.st0{fill:#CE365A;}
</style>
<g id="Layer_2_1_">
	<g id="Layer_1-2">
		<g>
			<path class="st0" d="M193.8,4c12,0,27.6,11.3,43.7,31.8c28.8,36.6,51.2,91.1,47.4,106.5c-3.7,15.1-30,40-65.5,61.8
				c-38.7,23.9-78.1,38.1-105.2,38.1c-5.4,0-10.4-0.6-14.8-1.7C84.7,236.8,65,225.4,47,210.1c-19.2-16.2-33.7-34.4-39.7-49.9
				c-4.6-11.8-4.3-21.7,0.7-29.4c14.5-22.1,47.3-51.1,90-79.3c36.8-24.3,74.6-43.7,92.1-47.1C191.3,4.1,192.6,4,193.8,4 M193.8,1
				c-1.4,0-2.8,0.1-4.2,0.4c-36.2,7-151,77.1-184.1,127.7c-23.6,36.1,51.6,103.8,93.3,114.4c4.7,1.2,10,1.8,15.5,1.8
				c61.4,0,165.4-68.8,173.5-102.3C294.2,116.7,235.9,1,193.8,1L193.8,1z"/>
		</g>
	</g>
</g>
</svg>
