<svg xmlns="http://www.w3.org/2000/svg" viewBox="0 0 36.92 32.98"><defs><style>.cls-1{fill:#fec82f;}.cls-2{fill:none;stroke:#28355e;stroke-miterlimit:10;stroke-width:1.5px;}</style></defs><g id="Layer_2" data-name="Layer 2"><g id="Layer_1-2" data-name="Layer 1"><path class="cls-1" d="M9.14.75A10.59,10.59,0,0,0,.75,4.65c0,2.93,2.8,7.81,5.59,8.79,1.87,0,3.92-2.15,4.66-2.93L8.21,30C13.8,33,23.12,33,28.71,30L25.92,10.51c.93,1,3.17,2.93,4.66,2.93,2.79-1,5.59-5.66,5.59-8.79C34.3,3.35,28.53.75,24.05.75c-1.55,2.93-6.57,6.89-10.51,2"/><path class="cls-2" d="M9.14.75A10.59,10.59,0,0,0,.75,4.65c0,2.93,2.8,7.81,5.59,8.79,1.87,0,3.92-2.15,4.66-2.93L8.21,30C13.8,33,23.12,33,28.71,30L25.92,10.51c.93,1,3.17,2.93,4.66,2.93,2.79-1,5.59-5.66,5.59-8.79C34.3,3.35,28.53.75,24.05.75c-1.55,2.93-6.57,6.89-10.51,2"/></g></g></svg>