<svg xmlns="http://www.w3.org/2000/svg" viewBox="0 0 35.19 35.47"><defs><style>.cls-1{fill:#fec82f;stroke:#28355e;stroke-miterlimit:10;stroke-width:1.5px;}</style></defs><g id="Layer_2" data-name="Layer 2"><g id="Layer_1-2" data-name="Layer 1"><path class="cls-1" d="M.47,12.46l7-1a4,4,0,0,0,2.89-2L14.6,1.76a2,2,0,0,1,3.5,0l4.25,7.66a4,4,0,0,0,2.94,2l7.44,1a1.92,1.92,0,0,1,1,3.4l-5.39,4.27A3.78,3.78,0,0,0,27,24.18l2.45,8.06a2,2,0,0,1-3.15,2l-7.49-5.82a4.1,4.1,0,0,0-5,0L6.37,34.29a2,2,0,0,1-3.14-2l2.44-8.07A3.79,3.79,0,0,0,4.4,20.11L.47,17"/></g></g></svg>