<?xml version="1.0" encoding="utf-8"?>
<!-- Generator: Adobe Illustrator 25.2.3, SVG Export Plug-In . SVG Version: 6.00 Build 0)  -->
<svg version="1.1" id="Layer_1" xmlns="http://www.w3.org/2000/svg" xmlns:xlink="http://www.w3.org/1999/xlink" x="0px" y="0px"
	 viewBox="0 0 16.4 16.5" style="enable-background:new 0 0 16.4 16.5;" xml:space="preserve">
<style type="text/css">
	.st0{fill:#FEC82F;}
</style>
<g id="Layer_2_1_">
	<g id="Layer_1-2">
		<path class="st0" d="M0.1,10.9l2.6,4.7C3.2,16.4,4.2,16.9,5,16c0.3-0.3,0.5-0.7,0.8-1l8-10.2l2.5-3.1c0.4-0.4,0.4-1,0-1.4
			c0,0,0,0,0,0c-0.4-0.4-1-0.4-1.4,0c0,0,0,0,0,0L8.9,7.8l-3.8,4.9l-1.2,1.6c-0.1,0.1-0.2,0.2-0.2,0.3c-0.2,0.4,1.2,0.7,1,0.2
			C4.4,14.4,4.2,14,4,13.7l-0.9-1.6L1.9,9.9c-0.3-0.4-1-0.5-1.4-0.2C0.1,9.9-0.1,10.5,0.1,10.9L0.1,10.9z"/>
	</g>
</g>
</svg>
