<svg xmlns="http://www.w3.org/2000/svg" viewBox="0 0 39.13 26.58"><defs><style>.cls-1{fill:#fec82f;stroke:#28355e;stroke-miterlimit:10;stroke-width:1.5px;}</style></defs><g id="Layer_2" data-name="Layer 2"><g id="Layer_1-2" data-name="Layer 1"><path class="cls-1" d="M19.56,19.56l6-4.49a2.1,2.1,0,0,0-.09-3.42L18.63,7.1a2.09,2.09,0,0,0-3.25,1.74V21.65a4.18,4.18,0,0,0,4.18,4.18H30a8.36,8.36,0,0,0,8.36-8.36V9.11A8.36,8.36,0,0,0,30,.75H9.11A8.36,8.36,0,0,0,.75,9.11v8.36a8.36,8.36,0,0,0,8.36,8.36H11.2"/></g></g></svg>