<svg xmlns="http://www.w3.org/2000/svg" viewBox="0 0 45.37 30.75"><defs><style>.cls-1{fill:#fec82f;stroke:#28355e;stroke-miterlimit:10;stroke-width:1.5px;}</style></defs><g id="Layer_2" data-name="Layer 2"><g id="Layer_1-2" data-name="Layer 1"><path class="cls-1" d="M34.23,11.72V3.19A2.44,2.44,0,0,1,36.67.75h2a2.44,2.44,0,0,1,2.44,2.44V10.5h1a2.44,2.44,0,0,1,2.44,2.44v4.87a2.44,2.44,0,0,1-2.44,2.44h-1v7.31A2.44,2.44,0,0,1,38.72,30h-2a2.44,2.44,0,0,1-2.44-2.44V20.25a2.44,2.44,0,0,0-2.44-2.44H13.58a2.44,2.44,0,0,0-2.44,2.44v7.31A2.44,2.44,0,0,1,8.7,30h-2a2.44,2.44,0,0,1-2.44-2.44V20.25h-1A2.44,2.44,0,0,1,.75,17.81V12.94A2.44,2.44,0,0,1,3.19,10.5h1V3.19A2.44,2.44,0,0,1,6.65.75h2a2.44,2.44,0,0,1,2.44,2.44V10.5a2.44,2.44,0,0,0,2.44,2.44h15.2"/></g></g></svg>